<?xml version="1.0" encoding="UTF-8"?>
<svg width="449px" height="450px" viewBox="0 0 449 450" version="1.1" xmlns="http://www.w3.org/2000/svg" xmlns:xlink="http://www.w3.org/1999/xlink">
    <title>rocket</title>
    <g id="Page-1" stroke="none" stroke-width="1" fill="none" fill-rule="evenodd">
        <g id="Artboard" transform="translate(-36.000000, -63.000000)" fill-rule="nonzero">
            <g id="rocket" transform="translate(260.353553, 288.146447) rotate(-45.000000) translate(-260.353553, -288.146447) translate(104.853553, 126.646447)">
                <g id="Group" opacity="0.1" transform="translate(101.000000, 158.000000)" fill="#231F20">
                    <path d="M50.574712,53.4232168 C37.7705834,65.4064036 1.75897157,153.283106 1.75897157,153.283106 C-3.84283471,162.869656 4.15974569,170.059568 22.5656806,160.473018 L87.3865819,125.322337 C122.597936,106.149238 129,100.557085 129,61.412008 L122.597936,14.2781402 C120.197162,-1.69944216 108.193291,-4.89495862 96.1894203,7.88710723 L50.574712,53.4232168 Z" id="Path"></path>
                </g>
                <g id="Group" opacity="0.1" transform="translate(0.000000, 92.000000)" fill="#231F20">
                    <path d="M111.440119,79.3474615 C98.6737091,92.1712937 11.7025423,128.238322 11.7025423,128.238322 C2.12773497,133.848748 -5.05337055,125.833853 4.52143681,107.399594 L38.8311632,41.6774545 C57.9807779,6.41191608 63.5660822,0 102.663212,0 L149.739348,6.41191608 C165.697361,8.81638461 168.888963,20.8387273 156.122553,32.8610699 L111.440119,79.3474615 Z" id="Path"></path>
                </g>
                <path d="M151.574712,195.423217 C138.770583,207.406404 102.758972,295.283106 102.758972,295.283106 C97.1571653,304.869656 105.159746,312.059568 123.565681,302.473018 L188.386582,267.322337 C223.597936,248.149238 230,242.557085 230,203.412008 L223.597936,156.27814 C221.197162,140.300558 209.193291,137.105041 197.18942,149.887107 L151.574712,195.423217 Z" id="Path" fill="#D63031"></path>
                <path d="M111.440119,155.347462 C98.6737091,168.171294 11.7025423,204.238322 11.7025423,204.238322 C2.12773497,209.848748 -5.05337055,201.833853 4.52143681,183.399594 L38.8311632,117.677455 C57.9807779,82.4119161 63.5660822,76 102.663212,76 L149.739348,82.4119161 C165.697361,84.8163846 168.888963,96.8387273 156.122553,108.86107 L111.440119,155.347462 Z" id="Path" fill="#D63031"></path>
                <g id="Group" opacity="0.1" transform="translate(89.000000, 13.000000)" fill="#231F20">
                    <path d="M160.294858,174.390455 C97.9583017,236.727011 2.05590757,219.944092 2.05590757,219.944092 C2.05590757,219.944092 -14.7270114,124.041698 47.6095448,61.7051422 C109.946101,-0.631414013 204.250122,-7.02490695 217.037108,4.96289231 C229.024907,16.9506916 222.631414,112.053899 160.294858,174.390455 Z" id="Path"></path>
                </g>
                <path d="M243.294858,174.390455 C180.958302,236.727011 85.0559076,219.944092 85.0559076,219.944092 C85.0559076,219.944092 68.2729886,124.041698 130.609545,61.7051422 C192.946101,-0.631414013 287.250122,-7.02490695 300.037108,4.96289231 C312.024907,16.9506916 305.631414,112.053899 243.294858,174.390455 Z" id="Path" fill="#2D3436"></path>
                <g id="Group" opacity="0.2" transform="translate(43.000000, 149.000000)" fill="#231F20">
                    <path d="M19.6788009,121.551231 C13.2616399,127.968392 9.25091436,133.583408 2.83375342,127.166247 L2.83375342,127.166247 C-3.58340752,120.749086 2.0316083,116.73836 8.44876924,110.321199 L87.8611358,8.44876924 C94.2782968,2.0316083 121.551231,-3.58340752 127.166247,2.83375342 L127.166247,2.83375342 C133.583408,9.25091436 127.968392,36.5238483 121.551231,42.1388642 L19.6788009,121.551231 Z" id="Path"></path>
                </g>
                <path d="M62.6788009,254.551231 C56.2616399,260.968392 52.2509144,266.583408 45.8337534,260.166247 L45.8337534,260.166247 C39.4165925,253.749086 45.0316083,249.73836 51.4487692,243.321199 L130.861136,141.448769 C137.278297,135.031608 164.551231,129.416592 170.166247,135.833753 L170.166247,135.833753 C176.583408,142.250914 170.968392,169.523848 164.551231,175.138864 L62.6788009,254.551231 Z" id="Path" fill="#D63031"></path>
                <circle id="Oval" fill="#B2BEC3" cx="212" cy="95" r="32"></circle>
                <circle id="Oval" fill="#B2BEC3" cx="257" cy="50" r="16"></circle>
            </g>
        </g>
    </g>
</svg>